<svg width="48" height="48" viewBox="0 0 48 48" fill="none" xmlns="http://www.w3.org/2000/svg">
<path d="M3.05455 0.695653C3.05455 0.311455 3.3476 0 3.70909 0H43.8545C44.216 0 44.5091 0.311454 44.5091 0.695652V32.9275C44.5091 33.3117 44.216 33.6232 43.8545 33.6232H3.70909C3.34759 33.6232 3.05455 33.3117 3.05455 32.9275V0.695653Z" fill="#131212"/>
<path d="M0 33.6232C0 33.239 0.29305 32.9275 0.654545 32.9275H47.3455C47.707 32.9275 48 33.239 48 33.6232V47.3043C48 47.6885 47.707 48 47.3455 48H0.654545C0.293049 48 0 47.6885 0 47.3043V33.6232Z" fill="#131212"/>
<path d="M2.96388 34.5013C2.96388 34.3733 3.06157 34.2694 3.18207 34.2694H44.6366C44.7571 34.2694 44.8548 34.3733 44.8548 34.5013V44.7042C44.8548 44.8323 44.7571 44.9361 44.6366 44.9361H3.18207C3.06157 44.9361 2.96388 44.8323 2.96388 44.7042V34.5013Z" fill="#E4E0E8"/>
<path d="M44.8548 34.5013C44.8548 34.3733 44.7571 34.2694 44.6366 34.2694H3.18207C3.06157 34.2694 2.96388 34.3733 2.96388 34.5013V35.197C2.96388 35.325 3.06157 35.4289 3.18207 35.4289H44.6366C44.7571 35.4289 44.8548 35.325 44.8548 35.197V34.5013Z" fill="#C6B7A7"/>
<path d="M44.8548 34.5013C44.8548 34.3733 44.7571 34.2694 44.6366 34.2694H3.18207C3.06157 34.2694 2.96388 34.3733 2.96388 34.5013V35.197C2.96388 35.325 3.06157 35.4289 3.18207 35.4289H44.6366C44.7571 35.4289 44.8548 35.325 44.8548 35.197V34.5013Z" fill="#8792A0"/>
<path d="M6.23661 37.0521C6.23661 36.924 6.13893 36.8202 6.01843 36.8202H4.70934C4.58884 36.8202 4.49116 36.924 4.49116 37.0521V38.4434C4.49116 38.5714 4.58884 38.6752 4.70934 38.6752H6.01843C6.13893 38.6752 6.23661 38.5714 6.23661 38.4434V37.0521Z" fill="#353330" fill-opacity="0.75"/>
<path d="M17.1457 36.8202C17.1457 36.6921 17.2434 36.5883 17.3639 36.5883H43.1093C43.2298 36.5883 43.3275 36.6921 43.3275 36.8202V43.7767C43.3275 43.9048 43.2298 44.0086 43.1093 44.0086H17.3639C17.2434 44.0086 17.1457 43.9048 17.1457 43.7767V36.8202Z" fill="#8792A0"/>
<path d="M3.40025 40.9941C3.40025 40.866 3.49793 40.7622 3.61843 40.7622C3.73893 40.7622 3.83661 40.866 3.83661 40.9941V44.0086C3.83661 44.1366 3.73893 44.2405 3.61843 44.2405C3.49793 44.2405 3.40025 44.1366 3.40025 44.0086V40.9941Z" fill="black"/>
<path d="M5.80025 40.9941C5.80025 40.866 5.89793 40.7622 6.01843 40.7622C6.13893 40.7622 6.23661 40.866 6.23661 40.9941V44.0086C6.23661 44.1366 6.13893 44.2405 6.01843 44.2405C5.89793 44.2405 5.80025 44.1366 5.80025 44.0086V40.9941Z" fill="black"/>
<path d="M6.67298 40.9941C6.67298 40.866 6.77066 40.7622 6.89116 40.7622C7.01166 40.7622 7.10934 40.866 7.10934 40.9941V44.0086C7.10934 44.1366 7.01166 44.2405 6.89116 44.2405C6.77066 44.2405 6.67298 44.1366 6.67298 44.0086V40.9941Z" fill="black"/>
<path d="M4.27298 40.9941C4.27298 40.866 4.37066 40.7622 4.49116 40.7622C4.61166 40.7622 4.70934 40.866 4.70934 40.9941V44.0086C4.70934 44.1366 4.61166 44.2405 4.49116 44.2405C4.37066 44.2405 4.27298 44.1366 4.27298 44.0086V40.9941Z" fill="black"/>
<path d="M7.5457 40.9941C7.5457 40.866 7.64339 40.7622 7.76388 40.7622C7.88438 40.7622 7.98207 40.866 7.98207 40.9941V44.0086C7.98207 44.1366 7.88438 44.2405 7.76388 44.2405C7.64339 44.2405 7.5457 44.1366 7.5457 44.0086V40.9941Z" fill="black"/>
<path d="M9.29116 40.9941C9.29116 40.866 9.38884 40.7622 9.50934 40.7622C9.62984 40.7622 9.72752 40.866 9.72752 40.9941V44.0086C9.72752 44.1366 9.62984 44.2405 9.50934 44.2405C9.38884 44.2405 9.29116 44.1366 9.29116 44.0086V40.9941Z" fill="black"/>
<path d="M10.1639 40.9941C10.1639 40.866 10.2616 40.7622 10.3821 40.7622C10.5026 40.7622 10.6002 40.866 10.6002 40.9941V44.0086C10.6002 44.1366 10.5026 44.2405 10.3821 44.2405C10.2616 44.2405 10.1639 44.1366 10.1639 44.0086V40.9941Z" fill="black"/>
<path d="M8.41843 40.9941C8.41843 40.866 8.51611 40.7622 8.63661 40.7622C8.75711 40.7622 8.85479 40.866 8.85479 40.9941V44.0086C8.85479 44.1366 8.75711 44.2405 8.63661 44.2405C8.51611 44.2405 8.41843 44.1366 8.41843 44.0086V40.9941Z" fill="black"/>
<path d="M11.0366 40.9941C11.0366 40.866 11.1343 40.7622 11.2548 40.7622C11.3753 40.7622 11.473 40.866 11.473 40.9941V44.0086C11.473 44.1366 11.3753 44.2405 11.2548 44.2405C11.1343 44.2405 11.0366 44.1366 11.0366 44.0086V40.9941Z" fill="black"/>
<path d="M12.7821 40.9941C12.7821 40.866 12.8798 40.7622 13.0002 40.7622C13.1207 40.7622 13.2184 40.866 13.2184 40.9941V44.0086C13.2184 44.1366 13.1207 44.2405 13.0002 44.2405C12.8798 44.2405 12.7821 44.1366 12.7821 44.0086V40.9941Z" fill="black"/>
<path d="M13.6548 40.9941C13.6548 40.866 13.7525 40.7622 13.873 40.7622C13.9935 40.7622 14.0912 40.866 14.0912 40.9941V44.0086C14.0912 44.1366 13.9935 44.2405 13.873 44.2405C13.7525 44.2405 13.6548 44.1366 13.6548 44.0086V40.9941Z" fill="black"/>
<path d="M14.5275 40.9941C14.5275 40.866 14.6252 40.7622 14.7457 40.7622C14.8662 40.7622 14.9639 40.866 14.9639 40.9941V44.0086C14.9639 44.1366 14.8662 44.2405 14.7457 44.2405C14.6252 44.2405 14.5275 44.1366 14.5275 44.0086V40.9941Z" fill="black"/>
<path d="M15.4002 40.9941C15.4002 40.866 15.4979 40.7622 15.6184 40.7622C15.7389 40.7622 15.8366 40.866 15.8366 40.9941V44.0086C15.8366 44.1366 15.7389 44.2405 15.6184 44.2405C15.4979 44.2405 15.4002 44.1366 15.4002 44.0086V40.9941Z" fill="black"/>
<path d="M11.9093 40.9941C11.9093 40.866 12.007 40.7622 12.1275 40.7622C12.248 40.7622 12.3457 40.866 12.3457 40.9941V44.0086C12.3457 44.1366 12.248 44.2405 12.1275 44.2405C12.007 44.2405 11.9093 44.1366 11.9093 44.0086V40.9941Z" fill="black"/>
<path d="M17.5821 36.8202C17.5821 36.6921 17.6798 36.5883 17.8002 36.5883H42.673C42.7935 36.5883 42.8912 36.6921 42.8912 36.8202V42.8492C42.8912 42.9772 42.7935 43.081 42.673 43.081H17.8002C17.6798 43.081 17.5821 42.9772 17.5821 42.8492V36.8202Z" fill="#131212"/>
<path d="M21.9457 37.5158H25.873V42.1535H21.9457V37.5158Z" fill="#1E1E1E" fill-opacity="0.7"/>
<path d="M18.0184 39.6028H30.2366V40.2984H18.0184V39.6028Z" fill="#252525" fill-opacity="0.7"/>
<path d="M35.2548 37.5158H39.1821V42.1535H35.2548V37.5158Z" fill="#1E1E1E" fill-opacity="0.7"/>
<path d="M30.673 39.6028H42.8912V40.2984H30.673V39.6028Z" fill="#252525" fill-opacity="0.7"/>
<path d="M30.673 36.5883V43.081H30.2366V36.5883H30.673Z" fill="#252525" fill-opacity="0.7"/>
<path d="M5.90881 3.19608C5.90928 3.06837 6.00683 2.9651 6.127 2.9651H41.7994C41.9202 2.9651 42.0181 3.06947 42.0176 3.19789L41.9099 32.4153C41.9094 32.543 41.8118 32.6463 41.6917 32.6463H6.01928C5.89845 32.6463 5.80063 32.5419 5.8011 32.4135L5.90881 3.19608Z" fill="#8792A0"/>
<path d="M5.90881 4.81927C5.90928 4.69155 6.00683 4.58829 6.127 4.58829H41.7994C41.9202 4.58829 42.0181 4.69266 42.0176 4.82108L41.9099 34.0385C41.9094 34.1662 41.8118 34.2694 41.6917 34.2694H6.01928C5.89845 34.2694 5.80063 34.1651 5.8011 34.0367L5.90881 4.81927Z" fill="#E4E0E8"/>
<path d="M7.32752 8.29843C7.32752 8.17037 7.4252 8.06655 7.5457 8.06655H35.473C35.5935 8.06655 35.6912 8.17037 35.6912 8.29843V31.0231C35.6912 31.1511 35.5935 31.255 35.473 31.255H7.5457C7.4252 31.255 7.32752 31.1511 7.32752 31.0231V8.29843Z" fill="#C6B7A7"/>
<path d="M35.6912 8.29843C35.6912 8.17037 35.7888 8.06655 35.9093 8.06655H39.4002C39.5207 8.06655 39.6184 8.17037 39.6184 8.29843V31.0231C39.6184 31.1511 39.5207 31.255 39.4002 31.255H35.9093C35.7888 31.255 35.6912 31.1511 35.6912 31.0231V8.29843Z" fill="#C6B7A7"/>
<path d="M7.32752 8.29843C7.32752 8.17037 7.4252 8.06655 7.5457 8.06655H35.473C35.5935 8.06655 35.6912 8.17037 35.6912 8.29843V31.0231C35.6912 31.1511 35.5935 31.255 35.473 31.255H7.5457C7.4252 31.255 7.32752 31.1511 7.32752 31.0231V8.29843Z" fill="#8792A0"/>
<path d="M35.6912 8.29843C35.6912 8.17037 35.7888 8.06655 35.9093 8.06655H39.4002C39.5207 8.06655 39.6184 8.17037 39.6184 8.29843V31.0231C39.6184 31.1511 39.5207 31.255 39.4002 31.255H35.9093C35.7888 31.255 35.6912 31.1511 35.6912 31.0231V8.29843Z" fill="#8792A0"/>
<path d="M8.20025 9.68974C8.20025 9.4336 8.39562 9.22597 8.63661 9.22597H34.3821C34.6231 9.22597 34.8184 9.4336 34.8184 9.68974V29.6318C34.8184 29.8879 34.6231 30.0955 34.3821 30.0955H8.63661C8.39561 30.0955 8.20025 29.8879 8.20025 29.6318V9.68974Z" fill="black"/>
<path d="M33.7275 16.5033V11.6608C33.7275 11.5327 33.6298 11.4289 33.5093 11.4289H9.50933C9.38883 11.4289 9.29115 11.5327 9.29115 11.6608V22.0398C9.29115 22.1877 9.41964 22.2978 9.55562 22.2664L33.5556 16.7299C33.6559 16.7067 33.7275 16.6124 33.7275 16.5033Z" fill="#2D2B2B" fill-opacity="0.72"/>
<path d="M9.29115 10.8492H33.7275V11.5448H9.29115V10.8492Z" fill="#1E1E1E"/>
<path d="M37.873 9.68974C37.873 9.56167 37.7753 9.45785 37.6548 9.45785H36.7821C36.6616 9.45785 36.5639 9.56167 36.5639 9.68974V10.6173C36.5639 10.7453 36.6616 10.8492 36.7821 10.8492H37.6548C37.7753 10.8492 37.873 10.7453 37.873 10.6173V9.68974Z" fill="#353330" fill-opacity="0.7"/>
<path d="M37.873 28.7042C37.873 29.0884 37.5799 29.3999 37.2184 29.3999C36.8569 29.3999 36.5639 29.0884 36.5639 28.7042C36.5639 28.32 36.8569 28.0086 37.2184 28.0086C37.5799 28.0086 37.873 28.32 37.873 28.7042Z" fill="white"/>
<path d="M37.873 24.7622C37.873 25.1464 37.5799 25.4579 37.2184 25.4579C36.8569 25.4579 36.5639 25.1464 36.5639 24.7622C36.5639 24.378 36.8569 24.0665 37.2184 24.0665C37.5799 24.0665 37.873 24.378 37.873 24.7622Z" fill="white"/>
<path d="M36.8366 24.7622C36.8366 24.5381 37.0076 24.3564 37.2184 24.3564C37.4293 24.3564 37.6003 24.5381 37.6003 24.7622C37.6003 24.9863 37.4293 25.168 37.2184 25.168C37.0076 25.168 36.8366 24.9863 36.8366 24.7622Z" fill="black"/>
<path fill-rule="evenodd" clip-rule="evenodd" d="M37.2184 25.4579C37.5799 25.4579 37.873 25.1464 37.873 24.7622C37.873 24.378 37.5799 24.0665 37.2184 24.0665C36.8569 24.0665 36.5639 24.378 36.5639 24.7622C36.5639 25.1464 36.8569 25.4579 37.2184 25.4579ZM37.2184 24.2405C36.9473 24.2405 36.7275 24.4741 36.7275 24.7622C36.7275 25.0503 36.9473 25.2839 37.2184 25.2839C37.4896 25.2839 37.7093 25.0503 37.7093 24.7622C37.7093 24.4741 37.4896 24.2405 37.2184 24.2405Z" fill="black"/>
<path d="M36.8366 28.7042C36.8366 28.4801 37.0076 28.2984 37.2184 28.2984C37.4293 28.2984 37.6003 28.4801 37.6003 28.7042C37.6003 28.9283 37.4293 29.11 37.2184 29.11C37.0076 29.11 36.8366 28.9283 36.8366 28.7042Z" fill="black"/>
<path fill-rule="evenodd" clip-rule="evenodd" d="M37.2184 29.3999C37.5799 29.3999 37.873 29.0884 37.873 28.7042C37.873 28.32 37.5799 28.0086 37.2184 28.0086C36.8569 28.0086 36.5639 28.32 36.5639 28.7042C36.5639 29.0884 36.8569 29.3999 37.2184 29.3999ZM37.2184 28.1825C36.9473 28.1825 36.7275 28.4161 36.7275 28.7042C36.7275 28.9924 36.9473 29.226 37.2184 29.226C37.4896 29.226 37.7093 28.9924 37.7093 28.7042C37.7093 28.4161 37.4896 28.1825 37.2184 28.1825Z" fill="black"/>
<path d="M11.974 20.8291L11.1273 16.0434L14.9869 15.272L15.1079 15.9557L15.7511 15.8272L16.114 17.8782L15.4708 18.0067L15.5917 18.6904L13.0186 19.2046L13.2606 20.572L11.974 20.8291ZM12.8977 18.521L14.8275 18.1353L14.4646 16.0843L12.5348 16.47L12.8977 18.521Z" fill="#05F140"/>
<path d="M17.7635 19.672L17.6425 18.9884L16.9992 19.1169L16.8783 18.4333L17.5215 18.3047L17.4006 17.621L19.9737 17.1068L19.8527 16.4231L17.2796 16.9374L17.1586 16.2537L20.375 15.6109L20.496 16.2946L21.1392 16.166L21.6231 18.9007L17.7635 19.672ZM18.2858 18.8598L20.2156 18.4741L20.0946 17.7905L18.1648 18.1761L18.2858 18.8598Z" fill="#05F140"/>
<path d="M23.7123 15.6517L24.3556 15.5232L24.4765 16.2068L23.8333 16.3354L24.1962 18.3864L22.9096 18.6435L22.3048 15.2252L23.5913 14.9681L23.7123 15.6517ZM26.1644 14.4538L26.2854 15.1375L24.3556 15.5232L24.2346 14.8395L26.1644 14.4538Z" fill="#05F140"/>
<path d="M29.3423 17.3579L28.8585 14.6232L27.5719 14.8804L27.451 14.1967L28.7375 13.9396L28.4956 12.5722L29.7821 12.3151L30.0241 13.6824L31.3106 13.4253L31.4316 14.109L30.145 14.3661L30.6289 17.1008L29.3423 17.3579Z" fill="#05F140"/>
<path d="M16.1581 25.6556L16.0371 24.972L15.3939 25.1005L14.789 21.6822L15.4323 21.5536L15.3114 20.87L18.5277 20.2271L18.6487 20.9108L19.2919 20.7823L19.8968 24.2006L19.2535 24.3292L19.3745 25.0128L16.1581 25.6556ZM16.6804 24.8434L18.6102 24.4577L18.0054 21.0394L16.0756 21.4251L16.6804 24.8434Z" fill="#05F140"/>
<path d="M21.3043 24.6271L21.1833 23.9435L20.54 24.072L20.0562 21.3374L21.3427 21.0802L21.8266 23.8149L23.7564 23.4292L23.2725 20.6945L24.5591 20.4374L25.1639 23.8558L21.3043 24.6271Z" fill="#05F140"/>
<path d="M27.737 23.3415L27.2531 20.6068L25.9666 20.864L25.8456 20.1803L27.1322 19.9232L26.8902 18.5558L28.1768 18.2987L28.4187 19.666L29.7052 19.4089L29.8262 20.0926L28.5397 20.3497L29.0235 23.0844L27.737 23.3415Z" fill="#05F140"/>
<path d="M8.94545 10.2029H34.2545V28.7536H8.94545V10.2029Z" fill="black"/>
</svg>
