<svg width="1270" height="400" viewBox="0 0 1270 400" fill="none" xmlns="http://www.w3.org/2000/svg">
<path d="M25.4545 5.7971C25.4545 2.59545 27.8966 0 30.9091 0H365.455C368.467 0 370.909 2.59545 370.909 5.7971V274.396C370.909 277.598 368.467 280.193 365.455 280.193H30.9091C27.8966 280.193 25.4545 277.598 25.4545 274.396V5.7971Z" fill="#131212"/>
<path d="M0 280.193C0 276.992 2.44208 274.396 5.45455 274.396H394.545C397.558 274.396 400 276.992 400 280.193V394.203C400 397.405 397.558 400 394.545 400H5.45454C2.44208 400 0 397.405 0 394.203V280.193Z" fill="#131212"/>
<path d="M24.699 287.511C24.699 286.444 25.5131 285.579 26.5172 285.579H371.972C372.976 285.579 373.79 286.444 373.79 287.511V372.535C373.79 373.602 372.976 374.468 371.972 374.468H26.5172C25.5131 374.468 24.699 373.602 24.699 372.535V287.511Z" fill="#E4E0E8"/>
<path d="M373.79 287.511C373.79 286.444 372.976 285.579 371.972 285.579H26.5172C25.5131 285.579 24.699 286.444 24.699 287.511V293.308C24.699 294.375 25.5131 295.241 26.5172 295.241H371.972C372.976 295.241 373.79 294.375 373.79 293.308V287.511Z" fill="#C6B7A7"/>
<path d="M373.79 287.511C373.79 286.444 372.976 285.579 371.972 285.579H26.5172C25.5131 285.579 24.699 286.444 24.699 287.511V293.308C24.699 294.375 25.5131 295.241 26.5172 295.241H371.972C372.976 295.241 373.79 294.375 373.79 293.308V287.511Z" fill="#8792A0"/>
<path d="M51.9718 308.767C51.9718 307.7 51.1577 306.835 50.1536 306.835H39.2445C38.2403 306.835 37.4263 307.7 37.4263 308.767V320.361C37.4263 321.429 38.2403 322.294 39.2445 322.294H50.1536C51.1577 322.294 51.9718 321.429 51.9718 320.361V308.767Z" fill="#353330" fill-opacity="0.75"/>
<path d="M142.881 306.835C142.881 305.768 143.695 304.902 144.699 304.902H359.245C360.249 304.902 361.063 305.768 361.063 306.835V364.806C361.063 365.873 360.249 366.738 359.245 366.738H144.699C143.695 366.738 142.881 365.873 142.881 364.806V306.835Z" fill="#8792A0"/>
<path d="M28.3354 341.617C28.3354 340.55 29.1494 339.685 30.1536 339.685C31.1577 339.685 31.9718 340.55 31.9718 341.617V366.738C31.9718 367.805 31.1577 368.671 30.1536 368.671C29.1494 368.671 28.3354 367.805 28.3354 366.738V341.617Z" fill="black"/>
<path d="M48.3354 341.617C48.3354 340.55 49.1494 339.685 50.1536 339.685C51.1577 339.685 51.9718 340.55 51.9718 341.617V366.738C51.9718 367.805 51.1577 368.671 50.1536 368.671C49.1494 368.671 48.3354 367.805 48.3354 366.738V341.617Z" fill="black"/>
<path d="M55.6081 341.617C55.6081 340.55 56.4222 339.685 57.4263 339.685C58.4305 339.685 59.2445 340.55 59.2445 341.617V366.738C59.2445 367.805 58.4305 368.671 57.4263 368.671C56.4222 368.671 55.6081 367.805 55.6081 366.738V341.617Z" fill="black"/>
<path d="M35.6081 341.617C35.6081 340.55 36.4222 339.685 37.4263 339.685C38.4305 339.685 39.2445 340.55 39.2445 341.617V366.738C39.2445 367.805 38.4305 368.671 37.4263 368.671C36.4222 368.671 35.6081 367.805 35.6081 366.738V341.617Z" fill="black"/>
<path d="M62.8809 341.617C62.8809 340.55 63.6949 339.685 64.699 339.685C65.7032 339.685 66.5172 340.55 66.5172 341.617V366.738C66.5172 367.805 65.7032 368.671 64.699 368.671C63.6949 368.671 62.8809 367.805 62.8809 366.738V341.617Z" fill="black"/>
<path d="M77.4263 341.617C77.4263 340.55 78.2403 339.685 79.2445 339.685C80.2486 339.685 81.0627 340.55 81.0627 341.617V366.738C81.0627 367.805 80.2486 368.671 79.2445 368.671C78.2403 368.671 77.4263 367.805 77.4263 366.738V341.617Z" fill="black"/>
<path d="M84.699 341.617C84.699 340.55 85.5131 339.685 86.5172 339.685C87.5214 339.685 88.3354 340.55 88.3354 341.617V366.738C88.3354 367.805 87.5214 368.671 86.5172 368.671C85.5131 368.671 84.699 367.805 84.699 366.738V341.617Z" fill="black"/>
<path d="M70.1536 341.617C70.1536 340.55 70.9676 339.685 71.9718 339.685C72.9759 339.685 73.79 340.55 73.79 341.617V366.738C73.79 367.805 72.9759 368.671 71.9718 368.671C70.9676 368.671 70.1536 367.805 70.1536 366.738V341.617Z" fill="black"/>
<path d="M91.9718 341.617C91.9718 340.55 92.7858 339.685 93.79 339.685C94.7941 339.685 95.6081 340.55 95.6081 341.617V366.738C95.6081 367.805 94.7941 368.671 93.79 368.671C92.7858 368.671 91.9718 367.805 91.9718 366.738V341.617Z" fill="black"/>
<path d="M106.517 341.617C106.517 340.55 107.331 339.685 108.335 339.685C109.34 339.685 110.154 340.55 110.154 341.617V366.738C110.154 367.805 109.34 368.671 108.335 368.671C107.331 368.671 106.517 367.805 106.517 366.738V341.617Z" fill="black"/>
<path d="M113.79 341.617C113.79 340.55 114.604 339.685 115.608 339.685C116.612 339.685 117.426 340.55 117.426 341.617V366.738C117.426 367.805 116.612 368.671 115.608 368.671C114.604 368.671 113.79 367.805 113.79 366.738V341.617Z" fill="black"/>
<path d="M121.063 341.617C121.063 340.55 121.877 339.685 122.881 339.685C123.885 339.685 124.699 340.55 124.699 341.617V366.738C124.699 367.805 123.885 368.671 122.881 368.671C121.877 368.671 121.063 367.805 121.063 366.738V341.617Z" fill="black"/>
<path d="M128.335 341.617C128.335 340.55 129.149 339.685 130.154 339.685C131.158 339.685 131.972 340.55 131.972 341.617V366.738C131.972 367.805 131.158 368.671 130.154 368.671C129.149 368.671 128.335 367.805 128.335 366.738V341.617Z" fill="black"/>
<path d="M99.2445 341.617C99.2445 340.55 100.059 339.685 101.063 339.685C102.067 339.685 102.881 340.55 102.881 341.617V366.738C102.881 367.805 102.067 368.671 101.063 368.671C100.059 368.671 99.2445 367.805 99.2445 366.738V341.617Z" fill="black"/>
<path d="M146.517 306.835C146.517 305.768 147.331 304.902 148.335 304.902H355.608C356.612 304.902 357.426 305.768 357.426 306.835V357.076C357.426 358.144 356.612 359.009 355.608 359.009H148.335C147.331 359.009 146.517 358.144 146.517 357.076V306.835Z" fill="#131212"/>
<path d="M182.881 312.632H215.608V351.279H182.881V312.632Z" fill="#1E1E1E" fill-opacity="0.7"/>
<path d="M150.154 330.023H251.972V335.82H150.154V330.023Z" fill="#252525" fill-opacity="0.7"/>
<path d="M293.79 312.632H326.517V351.279H293.79V312.632Z" fill="#1E1E1E" fill-opacity="0.7"/>
<path d="M255.608 330.023H357.426V335.82H255.608V330.023Z" fill="#252525" fill-opacity="0.7"/>
<path d="M255.608 304.902V359.009H251.972V304.902H255.608Z" fill="#252525" fill-opacity="0.7"/>
<path d="M49.2401 26.634C49.244 25.5697 50.0569 24.7092 51.0583 24.7092H348.328C349.335 24.7092 350.15 25.5789 350.146 26.6491L349.249 270.127C349.245 271.192 348.432 272.052 347.431 272.052H50.1607C49.1538 272.052 48.3386 271.182 48.3425 270.112L49.2401 26.634Z" fill="#8792A0"/>
<path d="M49.2401 40.1605C49.244 39.0963 50.0569 38.2357 51.0583 38.2357H348.328C349.335 38.2357 350.15 39.1055 350.146 40.1756L349.249 283.654C349.245 284.718 348.432 285.579 347.431 285.579H50.1607C49.1538 285.579 48.3386 284.709 48.3425 283.639L49.2401 40.1605Z" fill="#E4E0E8"/>
<path d="M61.0627 69.1536C61.0627 68.0864 61.8767 67.2212 62.8809 67.2212H295.608C296.612 67.2212 297.426 68.0864 297.426 69.1536V258.526C297.426 259.593 296.612 260.458 295.608 260.458H62.8809C61.8767 260.458 61.0627 259.593 61.0627 258.526V69.1536Z" fill="#C6B7A7"/>
<path d="M297.426 69.1536C297.426 68.0864 298.24 67.2212 299.245 67.2212H328.335C329.34 67.2212 330.154 68.0864 330.154 69.1536V258.526C330.154 259.593 329.34 260.458 328.335 260.458H299.245C298.24 260.458 297.426 259.593 297.426 258.526V69.1536Z" fill="#C6B7A7"/>
<path d="M61.0627 69.1536C61.0627 68.0864 61.8767 67.2212 62.8809 67.2212H295.608C296.612 67.2212 297.426 68.0864 297.426 69.1536V258.526C297.426 259.593 296.612 260.458 295.608 260.458H62.8809C61.8767 260.458 61.0627 259.593 61.0627 258.526V69.1536Z" fill="#8792A0"/>
<path d="M297.426 69.1536C297.426 68.0864 298.24 67.2212 299.245 67.2212H328.335C329.34 67.2212 330.154 68.0864 330.154 69.1536V258.526C330.154 259.593 329.34 260.458 328.335 260.458H299.245C298.24 260.458 297.426 259.593 297.426 258.526V69.1536Z" fill="#8792A0"/>
<path d="M68.3354 80.7478C68.3354 78.6134 69.9635 76.8831 71.9718 76.8831H286.517C288.526 76.8831 290.154 78.6134 290.154 80.7478V246.931C290.154 249.066 288.526 250.796 286.517 250.796H71.9717C69.9634 250.796 68.3354 249.066 68.3354 246.931V80.7478Z" fill="black"/>
<path d="M281.063 137.527V97.1729C281.063 96.1057 280.249 95.2406 279.245 95.2406H79.2444C78.2403 95.2406 77.4263 96.1057 77.4263 97.1729V183.665C77.4263 184.897 78.497 185.815 79.6301 185.553L279.63 139.416C280.466 139.223 281.063 138.437 281.063 137.527Z" fill="#2D2B2B" fill-opacity="0.72"/>
<path d="M77.4263 90.4096H281.063V96.2067H77.4263V90.4096Z" fill="#1E1E1E"/>
<path d="M315.608 80.7478C315.608 79.6806 314.794 78.8154 313.79 78.8154H306.517C305.513 78.8154 304.699 79.6806 304.699 80.7478V88.4773C304.699 89.5445 305.513 90.4096 306.517 90.4096H313.79C314.794 90.4096 315.608 89.5445 315.608 88.4773V80.7478Z" fill="#353330" fill-opacity="0.7"/>
<path d="M315.608 239.202C315.608 242.404 313.166 244.999 310.154 244.999C307.141 244.999 304.699 242.404 304.699 239.202C304.699 236 307.141 233.405 310.154 233.405C313.166 233.405 315.608 236 315.608 239.202Z" fill="white"/>
<path d="M315.608 206.352C315.608 209.553 313.166 212.149 310.154 212.149C307.141 212.149 304.699 209.553 304.699 206.352C304.699 203.15 307.141 200.555 310.154 200.555C313.166 200.555 315.608 203.15 315.608 206.352Z" fill="white"/>
<path d="M306.972 206.352C306.972 204.484 308.396 202.97 310.154 202.97C311.911 202.97 313.335 204.484 313.335 206.352C313.335 208.219 311.911 209.733 310.154 209.733C308.396 209.733 306.972 208.219 306.972 206.352Z" fill="black"/>
<path fill-rule="evenodd" clip-rule="evenodd" d="M310.154 212.149C313.166 212.149 315.608 209.553 315.608 206.352C315.608 203.15 313.166 200.555 310.154 200.555C307.141 200.555 304.699 203.15 304.699 206.352C304.699 209.553 307.141 212.149 310.154 212.149ZM310.154 202.004C307.894 202.004 306.063 203.95 306.063 206.352C306.063 208.753 307.894 210.699 310.154 210.699C312.413 210.699 314.245 208.753 314.245 206.352C314.245 203.95 312.413 202.004 310.154 202.004Z" fill="black"/>
<path d="M306.972 239.202C306.972 237.334 308.396 235.82 310.154 235.82C311.911 235.82 313.335 237.334 313.335 239.202C313.335 241.07 311.911 242.584 310.154 242.584C308.396 242.584 306.972 241.07 306.972 239.202Z" fill="black"/>
<path fill-rule="evenodd" clip-rule="evenodd" d="M310.154 244.999C313.166 244.999 315.608 242.404 315.608 239.202C315.608 236 313.166 233.405 310.154 233.405C307.141 233.405 304.699 236 304.699 239.202C304.699 242.404 307.141 244.999 310.154 244.999ZM310.154 234.854C307.894 234.854 306.063 236.801 306.063 239.202C306.063 241.603 307.894 243.55 310.154 243.55C312.413 243.55 314.245 241.603 314.245 239.202C314.245 236.801 312.413 234.854 310.154 234.854Z" fill="black"/>
<path fill-rule="evenodd" clip-rule="evenodd" d="M48.5827 286.079H26.5172C25.8175 286.079 25.199 286.691 25.199 287.511H25.699V294.43C25.9277 294.626 26.2149 294.741 26.5172 294.741H371.972C372.274 294.741 372.561 294.626 372.79 294.43V287.511H373.29C373.29 286.691 372.672 286.079 371.972 286.079H349.008C348.565 286.392 348.025 286.579 347.431 286.579H50.1607C49.5658 286.579 49.0266 286.392 48.5827 286.079ZM47.7029 285.079H26.5172C25.2087 285.079 24.199 286.197 24.199 287.511H23.699V372.535C23.699 374.096 24.9043 375.468 26.5172 375.468H371.972C373.585 375.468 374.79 374.096 374.79 372.535V287.511H374.29C374.29 286.197 373.28 285.079 371.972 285.079H349.889C350.118 284.653 350.247 284.165 350.249 283.658L350.258 281.193H365.455C368.744 281.193 371.383 278.635 371.839 275.396H394.545C396.949 275.396 399 277.486 399 280.193V394.203C399 396.911 396.949 399 394.545 399H5.45454C3.05087 399 1 396.911 1 394.203V280.193C1 277.486 3.05088 275.396 5.45455 275.396H24.5245C24.9809 278.635 27.62 281.193 30.9091 281.193H47.3515L47.3425 283.635C47.3406 284.151 47.4703 284.646 47.7029 285.079ZM47.3589 279.193H30.9091C28.8111 279.193 26.9819 277.601 26.5506 275.396H47.3729L47.3589 279.193ZM49.3515 281.193L49.3425 283.642C49.3404 284.217 49.7643 284.579 50.1607 284.579H347.431C347.825 284.579 348.247 284.222 348.249 283.65L348.258 281.193H49.3515ZM348.265 279.193H49.3589L49.3729 275.396H348.279L348.265 279.193ZM350.265 279.193H365.455C367.553 279.193 369.382 277.601 369.813 275.396H350.279L350.265 279.193ZM350.287 273.396H369.909V5.7971C369.909 3.08948 367.858 1 365.455 1H30.9091C28.5054 1 26.4545 3.08948 26.4545 5.7971V273.396H47.3803L47.3904 270.656C47.3582 270.478 47.3418 270.294 47.3425 270.109L48.2401 26.6303C48.2459 25.0731 49.4499 23.7092 51.0583 23.7092H348.328C349.946 23.7092 351.152 25.0874 351.146 26.6528L351.099 39.6318C351.131 39.8103 351.147 39.9935 351.146 40.1793L350.287 273.396ZM349.107 37.3474L349.147 26.6454C349.149 26.0704 348.725 25.7092 348.328 25.7092H51.0583C50.664 25.7092 50.2422 26.0663 50.2401 26.6377L50.2005 37.3722C50.4687 37.2838 50.7564 37.2357 51.0583 37.2357H348.328C348.601 37.2357 348.862 37.2749 349.107 37.3474ZM49.3912 270.442L50.2401 40.1642C50.2422 39.5929 50.664 39.2357 51.0583 39.2357H348.328C348.643 39.2357 348.976 39.4638 349.098 39.8461L348.249 270.124C348.247 270.695 347.825 271.052 347.431 271.052H50.1607C49.8457 271.052 49.5133 270.824 49.3912 270.442ZM49.382 272.94C49.6273 273.013 49.8882 273.052 50.1607 273.052H347.431C347.733 273.052 348.02 273.004 348.288 272.916L348.287 273.396H49.3803L49.382 272.94ZM25.4545 5.7971C25.4545 2.59545 27.8966 0 30.9091 0H365.455C368.467 0 370.909 2.59545 370.909 5.7971V274.396H394.545C397.558 274.396 400 276.992 400 280.193V394.203C400 397.405 397.558 400 394.545 400H5.45454C2.44208 400 0 397.405 0 394.203V280.193C0 276.992 2.44208 274.396 5.45455 274.396H25.4545V5.7971ZM372.79 295.586C372.537 295.686 372.262 295.741 371.972 295.741H26.5172C26.2272 295.741 25.9519 295.686 25.699 295.586V372.535C25.699 373.108 26.1219 373.468 26.5172 373.468H371.972C372.367 373.468 372.79 373.108 372.79 372.535V295.586ZM295.608 67.7212H62.8809C62.1811 67.7212 61.5627 68.3334 61.5627 69.1536V258.526C61.5627 259.346 62.1811 259.958 62.8809 259.958H295.608C296.308 259.958 296.926 259.346 296.926 258.526V69.1536C296.926 68.3334 296.308 67.7212 295.608 67.7212ZM297.426 67.645C297.006 67.0866 296.356 66.7212 295.608 66.7212H62.8809C61.5723 66.7212 60.5627 67.8394 60.5627 69.1536V258.526C60.5627 259.84 61.5723 260.958 62.8809 260.958H295.608C296.356 260.958 297.006 260.593 297.426 260.034C297.846 260.593 298.497 260.958 299.245 260.958H328.335C329.644 260.958 330.654 259.84 330.654 258.526V69.1536C330.654 67.8394 329.644 66.7212 328.335 66.7212H299.245C298.497 66.7212 297.846 67.0866 297.426 67.645ZM297.926 69.1536V258.526C297.926 259.346 298.545 259.958 299.245 259.958H328.335C329.035 259.958 329.654 259.346 329.654 258.526V69.1536C329.654 68.3334 329.035 67.7212 328.335 67.7212H299.245C298.545 67.7212 297.926 68.3334 297.926 69.1536ZM316.108 239.202C316.108 242.651 313.471 245.499 310.154 245.499C306.837 245.499 304.199 242.651 304.199 239.202C304.199 235.753 306.837 232.905 310.154 232.905C313.471 232.905 316.108 235.753 316.108 239.202ZM316.108 206.352C316.108 209.8 313.471 212.649 310.154 212.649C306.837 212.649 304.199 209.8 304.199 206.352C304.199 202.903 306.837 200.055 310.154 200.055C313.471 200.055 316.108 202.903 316.108 206.352ZM181.881 311.632H216.608V329.023H250.972V305.902H148.335C147.94 305.902 147.517 306.262 147.517 306.835V357.076C147.517 357.65 147.94 358.009 148.335 358.009H250.972V336.82H216.608V352.279H181.881V336.82H149.154V329.023H181.881V311.632ZM181.881 331.023H151.154V334.82H181.881V331.023ZM183.881 334.82V331.023H214.608V334.82H183.881ZM183.881 336.82V350.279H214.608V336.82H183.881ZM216.608 334.82H250.972V331.023H216.608V334.82ZM214.608 329.023H183.881V313.632H214.608V329.023ZM252.972 358.009H254.608V305.902H252.972V358.009ZM256.608 305.902V329.023H292.79V311.632H327.517V329.023H356.426V306.835C356.426 306.262 356.004 305.902 355.608 305.902H256.608ZM358.279 305.902C358.375 306.198 358.426 306.512 358.426 306.835V357.076C358.426 358.638 357.221 360.009 355.608 360.009H148.335C146.722 360.009 145.517 358.638 145.517 357.076V306.835C145.517 306.512 145.569 306.198 145.664 305.902H144.699C144.304 305.902 143.881 306.262 143.881 306.835V364.806C143.881 365.379 144.304 365.738 144.699 365.738H359.245C359.64 365.738 360.063 365.379 360.063 364.806V306.835C360.063 306.262 359.64 305.902 359.245 305.902H358.279ZM256.608 358.009H355.608C356.004 358.009 356.426 357.65 356.426 357.076V336.82H327.517V352.279H292.79V336.82H256.608V358.009ZM256.608 334.82H292.79V331.023H256.608V334.82ZM294.79 331.023V334.82H325.517V331.023H294.79ZM325.517 329.023V313.632H294.79V329.023H325.517ZM327.517 331.023V334.82H356.426V331.023H327.517ZM325.517 336.82H294.79V350.279H325.517V336.82ZM76.4263 89.4096H282.063V137.527C282.063 138.863 281.182 140.084 279.855 140.39L155.505 169.076L156.212 173.076L161.573 172.004L166.962 202.461L161.601 203.532L162.609 209.229L133.844 214.978L132.836 209.281L127.476 210.352L122.087 179.896L127.448 178.825L126.891 175.677L79.8549 186.528C78.0202 186.951 76.4263 185.461 76.4263 183.665V89.4096ZM78.4263 94.3643C78.6831 94.284 78.9573 94.2406 79.2444 94.2406H279.245C279.532 94.2406 279.806 94.284 280.063 94.3643V91.4096H78.4263V94.3643ZM280.063 97.2067H78.4263V183.665C78.4263 184.333 78.9738 184.679 79.4053 184.579L126.542 173.705L126.439 173.127L145.946 169.229L279.405 138.441C279.75 138.362 280.063 138.011 280.063 137.527V97.2067ZM128.842 175.227L129.758 180.403L124.397 181.474L129.089 207.99L134.449 206.919L135.458 212.616L160.299 207.651L159.291 201.954L164.651 200.883L159.96 174.366L154.599 175.438L153.591 169.741L146.367 171.184L128.842 175.227ZM98.977 174.757L91.5722 132.906L125.697 126.086L126.705 131.783L132.066 130.712L135.439 149.774L130.078 150.845L131.086 156.542L109.644 160.828L111.66 172.222L98.977 174.757ZM125.092 134.145L124.084 128.448L93.8824 134.484L100.59 172.395L109.35 170.644L107.334 159.25L128.776 154.964L127.768 149.267L133.128 148.196L130.453 133.074L125.092 134.145ZM106.674 155.522L103.301 136.461L121.345 132.855L124.718 151.916L106.674 155.522ZM147.222 165.115L146.214 159.417L140.854 160.489L139.497 152.822L144.858 151.75L143.85 146.053L165.292 141.768L164.632 138.04L143.19 142.326L141.834 134.659L170.598 128.91L171.606 134.607L176.967 133.536L181.348 158.294L147.222 165.115ZM147.827 157.055L148.835 162.753L179.037 156.717L175.354 135.898L169.993 136.969L168.985 131.272L144.144 136.236L144.803 139.964L166.246 135.678L167.602 143.345L146.16 147.631L147.168 153.328L141.807 154.399L142.467 158.127L147.827 157.055ZM151.575 158.346L150.218 150.679L168.262 147.073L169.618 154.74L151.575 158.346ZM196.796 131.612L195.788 125.915L187.028 127.666L191.72 154.182L200.48 152.431L197.456 135.339L202.816 134.268L202.157 130.541L196.796 131.612ZM204.118 130.149L220.2 126.935L218.843 119.268L200.8 122.874L201.808 128.571L198.409 129.25L197.401 123.553L184.718 126.088L190.107 156.544L202.79 154.009L199.766 136.917L205.126 135.846L204.118 130.149ZM203.77 128.179L203.11 124.451L217.23 121.629L217.89 125.357L203.77 128.179ZM243.713 145.83L239.681 123.041L228.96 125.184L227.603 117.517L238.324 115.374L236.308 103.98L248.991 101.445L251.007 112.839L261.728 110.697L263.085 118.364L252.364 120.507L256.396 143.295L243.713 145.83ZM241.294 120.679L245.326 143.468L254.086 141.718L250.053 118.929L260.775 116.786L260.115 113.059L249.394 115.201L247.378 103.807L238.618 105.557L240.634 116.952L229.913 119.095L230.573 122.822L241.294 120.679ZM138.197 208.209L132.808 177.753L150.852 174.147L156.24 204.603L138.197 208.209ZM176.729 206.407L175.721 200.71L170.36 201.781L165.98 177.022L178.663 174.488L182.695 197.277L196.815 194.455L192.783 171.666L205.466 169.131L210.854 199.587L176.729 206.407ZM177.334 198.348L178.342 204.045L208.544 198.009L203.852 171.493L195.093 173.243L199.125 196.032L181.082 199.639L177.049 176.85L168.29 178.6L171.974 199.419L177.334 198.348ZM230.335 195.694L226.303 172.905L215.582 175.047L214.225 167.38L224.946 165.238L222.93 153.843L235.613 151.308L237.629 162.703L248.35 160.56L249.707 168.227L238.986 170.37L243.018 193.159L230.335 195.694ZM227.916 170.543L231.948 193.332L240.708 191.581L236.675 168.792L247.397 166.649L246.737 162.922L236.016 165.065L234 153.67L225.24 155.421L227.256 166.815L216.535 168.958L217.195 172.685L227.916 170.543ZM39.2445 305.835H50.1536C51.7665 305.835 52.9718 307.206 52.9718 308.767V320.361C52.9718 321.923 51.7665 323.294 50.1536 323.294H39.2445C37.6315 323.294 36.4263 321.923 36.4263 320.361V308.767C36.4263 307.206 37.6315 305.835 39.2445 305.835ZM50.1536 307.835H39.2445C38.8491 307.835 38.4263 308.194 38.4263 308.767V320.361C38.4263 320.935 38.8491 321.294 39.2445 321.294H50.1536C50.549 321.294 50.9718 320.935 50.9718 320.361V308.767C50.9718 308.194 50.549 307.835 50.1536 307.835ZM359.245 303.902C360.857 303.902 362.063 305.274 362.063 306.835V364.806C362.063 366.367 360.857 367.738 359.245 367.738H144.699C143.086 367.738 141.881 366.367 141.881 364.806V306.835C141.881 305.274 143.086 303.902 144.699 303.902H359.245ZM30.9718 366.738V341.617C30.9718 341.044 30.5489 340.685 30.1536 340.685C29.7582 340.685 29.3354 341.044 29.3354 341.617V366.738C29.3354 367.311 29.7582 367.671 30.1536 367.671C30.5489 367.671 30.9718 367.311 30.9718 366.738ZM32.9718 341.617V366.738C32.9718 368.299 31.7665 369.671 30.1536 369.671C28.5406 369.671 27.3354 368.299 27.3354 366.738V341.617C27.3354 340.056 28.5406 338.685 30.1536 338.685C31.7665 338.685 32.9718 340.056 32.9718 341.617ZM50.9718 366.738V341.617C50.9718 341.044 50.549 340.685 50.1536 340.685C49.7582 340.685 49.3354 341.044 49.3354 341.617V366.738C49.3354 367.311 49.7582 367.671 50.1536 367.671C50.549 367.671 50.9718 367.311 50.9718 366.738ZM52.9718 341.617V366.738C52.9718 368.299 51.7665 369.671 50.1536 369.671C48.5406 369.671 47.3354 368.299 47.3354 366.738V341.617C47.3354 340.056 48.5406 338.685 50.1536 338.685C51.7665 338.685 52.9718 340.056 52.9718 341.617ZM58.2445 366.738V341.617C58.2445 341.044 57.8217 340.685 57.4263 340.685C57.031 340.685 56.6081 341.044 56.6081 341.617V366.738C56.6081 367.311 57.031 367.671 57.4263 367.671C57.8217 367.671 58.2445 367.311 58.2445 366.738ZM60.2445 341.617V366.738C60.2445 368.299 59.0393 369.671 57.4263 369.671C55.8134 369.671 54.6081 368.299 54.6081 366.738V341.617C54.6081 340.056 55.8134 338.685 57.4263 338.685C59.0393 338.685 60.2445 340.056 60.2445 341.617ZM38.2445 366.738V341.617C38.2445 341.044 37.8217 340.685 37.4263 340.685C37.031 340.685 36.6081 341.044 36.6081 341.617V366.738C36.6081 367.311 37.031 367.671 37.4263 367.671C37.8217 367.671 38.2445 367.311 38.2445 366.738ZM40.2445 341.617V366.738C40.2445 368.299 39.0393 369.671 37.4263 369.671C35.8134 369.671 34.6081 368.299 34.6081 366.738V341.617C34.6081 340.056 35.8134 338.685 37.4263 338.685C39.0393 338.685 40.2445 340.056 40.2445 341.617ZM65.5172 366.738V341.617C65.5172 341.044 65.0944 340.685 64.699 340.685C64.3037 340.685 63.8809 341.044 63.8809 341.617V366.738C63.8809 367.311 64.3037 367.671 64.699 367.671C65.0944 367.671 65.5172 367.311 65.5172 366.738ZM67.5172 341.617V366.738C67.5172 368.299 66.312 369.671 64.699 369.671C63.0861 369.671 61.8809 368.299 61.8809 366.738V341.617C61.8809 340.056 63.0861 338.685 64.699 338.685C66.312 338.685 67.5172 340.056 67.5172 341.617ZM80.0627 366.738V341.617C80.0627 341.044 79.6399 340.685 79.2445 340.685C78.8491 340.685 78.4263 341.044 78.4263 341.617V366.738C78.4263 367.311 78.8491 367.671 79.2445 367.671C79.6399 367.671 80.0627 367.311 80.0627 366.738ZM82.0627 341.617V366.738C82.0627 368.299 80.8574 369.671 79.2445 369.671C77.6316 369.671 76.4263 368.299 76.4263 366.738V341.617C76.4263 340.056 77.6316 338.685 79.2445 338.685C80.8574 338.685 82.0627 340.056 82.0627 341.617ZM87.3354 366.738V341.617C87.3354 341.044 86.9126 340.685 86.5172 340.685C86.1219 340.685 85.699 341.044 85.699 341.617V366.738C85.699 367.311 86.1219 367.671 86.5172 367.671C86.9126 367.671 87.3354 367.311 87.3354 366.738ZM89.3354 341.617V366.738C89.3354 368.299 88.1302 369.671 86.5172 369.671C84.9043 369.671 83.699 368.299 83.699 366.738V341.617C83.699 340.056 84.9043 338.685 86.5172 338.685C88.1302 338.685 89.3354 340.056 89.3354 341.617ZM72.79 366.738V341.617C72.79 341.044 72.3671 340.685 71.9718 340.685C71.5764 340.685 71.1536 341.044 71.1536 341.617V366.738C71.1536 367.311 71.5764 367.671 71.9718 367.671C72.3671 367.671 72.79 367.311 72.79 366.738ZM74.79 341.617V366.738C74.79 368.299 73.5847 369.671 71.9718 369.671C70.3588 369.671 69.1536 368.299 69.1536 366.738V341.617C69.1536 340.056 70.3588 338.685 71.9718 338.685C73.5847 338.685 74.79 340.056 74.79 341.617ZM94.6081 366.738V341.617C94.6081 341.044 94.1853 340.685 93.79 340.685C93.3946 340.685 92.9718 341.044 92.9718 341.617V366.738C92.9718 367.311 93.3946 367.671 93.79 367.671C94.1853 367.671 94.6081 367.311 94.6081 366.738ZM96.6081 341.617V366.738C96.6081 368.299 95.4029 369.671 93.79 369.671C92.177 369.671 90.9718 368.299 90.9718 366.738V341.617C90.9718 340.056 92.177 338.685 93.79 338.685C95.4029 338.685 96.6081 340.056 96.6081 341.617ZM109.154 366.738V341.617C109.154 341.044 108.731 340.685 108.335 340.685C107.94 340.685 107.517 341.044 107.517 341.617V366.738C107.517 367.311 107.94 367.671 108.335 367.671C108.731 367.671 109.154 367.311 109.154 366.738ZM111.154 341.617V366.738C111.154 368.299 109.948 369.671 108.335 369.671C106.722 369.671 105.517 368.299 105.517 366.738V341.617C105.517 340.056 106.722 338.685 108.335 338.685C109.948 338.685 111.154 340.056 111.154 341.617ZM116.426 366.738V341.617C116.426 341.044 116.003 340.685 115.608 340.685C115.213 340.685 114.79 341.044 114.79 341.617V366.738C114.79 367.311 115.213 367.671 115.608 367.671C116.003 367.671 116.426 367.311 116.426 366.738ZM118.426 341.617V366.738C118.426 368.299 117.221 369.671 115.608 369.671C113.995 369.671 112.79 368.299 112.79 366.738V341.617C112.79 340.056 113.995 338.685 115.608 338.685C117.221 338.685 118.426 340.056 118.426 341.617ZM123.699 366.738V341.617C123.699 341.044 123.276 340.685 122.881 340.685C122.486 340.685 122.063 341.044 122.063 341.617V366.738C122.063 367.311 122.486 367.671 122.881 367.671C123.276 367.671 123.699 367.311 123.699 366.738ZM125.699 341.617V366.738C125.699 368.299 124.494 369.671 122.881 369.671C121.268 369.671 120.063 368.299 120.063 366.738V341.617C120.063 340.056 121.268 338.685 122.881 338.685C124.494 338.685 125.699 340.056 125.699 341.617ZM130.972 366.738V341.617C130.972 341.044 130.549 340.685 130.154 340.685C129.758 340.685 129.335 341.044 129.335 341.617V366.738C129.335 367.311 129.758 367.671 130.154 367.671C130.549 367.671 130.972 367.311 130.972 366.738ZM132.972 341.617V366.738C132.972 368.299 131.767 369.671 130.154 369.671C128.541 369.671 127.335 368.299 127.335 366.738V341.617C127.335 340.056 128.541 338.685 130.154 338.685C131.767 338.685 132.972 340.056 132.972 341.617ZM101.881 366.738V341.617C101.881 341.044 101.458 340.685 101.063 340.685C100.667 340.685 100.244 341.044 100.244 341.617V366.738C100.244 367.311 100.667 367.671 101.063 367.671C101.458 367.671 101.881 367.311 101.881 366.738ZM103.881 341.617V366.738C103.881 368.299 102.676 369.671 101.063 369.671C99.4497 369.671 98.2445 368.299 98.2445 366.738V341.617C98.2445 340.056 99.4497 338.685 101.063 338.685C102.676 338.685 103.881 340.056 103.881 341.617ZM286.517 77.8831H71.9718C70.5723 77.8831 69.3354 79.1074 69.3354 80.7478V246.931C69.3354 248.572 70.5722 249.796 71.9717 249.796H286.517C287.917 249.796 289.154 248.572 289.154 246.931V80.7478C289.154 79.1074 287.917 77.8831 286.517 77.8831ZM71.9718 75.8831H286.517C289.134 75.8831 291.154 78.1193 291.154 80.7478V246.931C291.154 249.56 289.134 251.796 286.517 251.796H71.9717C69.3546 251.796 67.3354 249.56 67.3354 246.931V80.7478C67.3354 78.1193 69.3547 75.8831 71.9718 75.8831ZM306.517 77.8154H313.79C315.403 77.8154 316.608 79.1866 316.608 80.7478V88.4773C316.608 90.0385 315.403 91.4096 313.79 91.4096H306.517C304.904 91.4096 303.699 90.0385 303.699 88.4773V80.7478C303.699 79.1866 304.904 77.8154 306.517 77.8154ZM313.79 79.8154H306.517C306.122 79.8154 305.699 80.1746 305.699 80.7478V88.4773C305.699 89.0505 306.122 89.4096 306.517 89.4096H313.79C314.185 89.4096 314.608 89.0505 314.608 88.4773V80.7478C314.608 80.1746 314.185 79.8154 313.79 79.8154ZM310.154 203.97C309.005 203.97 307.972 204.978 307.972 206.352C307.972 207.725 309.005 208.733 310.154 208.733C311.302 208.733 312.335 207.725 312.335 206.352C312.335 204.978 311.302 203.97 310.154 203.97ZM310.154 236.82C309.005 236.82 307.972 237.828 307.972 239.202C307.972 240.576 309.005 241.584 310.154 241.584C311.302 241.584 312.335 240.576 312.335 239.202C312.335 237.828 311.302 236.82 310.154 236.82ZM122.407 150.338L108.287 153.16L105.612 138.039L119.732 135.217L122.407 150.338ZM167.308 153.162L153.188 155.984L152.529 152.257L166.649 149.435L167.308 153.162ZM153.93 203.025L139.81 205.847L135.118 179.331L149.238 176.509L153.93 203.025Z" fill="black" fill-opacity="0.5"/>
<path d="M78.5 184.5V98H280V138.5L78.5 184.5Z" fill="#1E1E1E"/>
<path d="M411.2 284V140.2H531.2C535.6 140.2 539.6 141.333 543.2 143.6C546.933 145.733 549.867 148.6 552 152.2C554.133 155.8 555.2 159.8 555.2 164.2V206.4C555.2 210.8 554.133 214.8 552 218.4C549.867 222 546.933 224.933 543.2 227.2C539.6 229.333 535.6 230.4 531.2 230.4H427.4V284H411.2ZM435.2 214H531.2C533.333 214 535.133 213.267 536.6 211.8C538.2 210.333 539 208.533 539 206.4V164.2C539 162.067 538.2 160.267 536.6 158.8C535.133 157.2 533.333 156.4 531.2 156.4H435.2C433.067 156.4 431.2 157.2 429.6 158.8C428.133 160.267 427.4 162.067 427.4 164.2V206.4C427.4 208.533 428.133 210.333 429.6 211.8C431.2 213.267 433.067 214 435.2 214Z" fill="#E9E2DA"/>
<path d="M592.803 284C588.403 284 584.336 282.933 580.603 280.8C577.003 278.533 574.07 275.6 571.803 272C569.67 268.267 568.603 264.2 568.603 259.8V217.8H670.203V192.2C670.203 190.067 669.403 188.267 667.803 186.8C666.336 185.2 664.536 184.4 662.403 184.4H568.603V168H662.403C666.936 168 671.003 169.133 674.603 171.4C678.336 173.533 681.27 176.467 683.403 180.2C685.67 183.8 686.803 187.8 686.803 192.2V284H592.803ZM592.803 267.6H670.203V234.2H585.003V259.8C585.003 261.933 585.736 263.8 587.203 265.4C588.803 266.867 590.67 267.6 592.803 267.6Z" fill="#E9E2DA"/>
<path d="M706.494 284V192.2C706.494 187.8 707.56 183.8 709.694 180.2C711.96 176.467 714.894 173.533 718.494 171.4C722.227 169.133 726.294 168 730.694 168H795.894V184.4H730.694C728.56 184.4 726.694 185.2 725.094 186.8C723.627 188.267 722.894 190.067 722.894 192.2V284H706.494Z" fill="#E9E2DA"/>
<path d="M833.238 284C828.704 284 824.571 282.933 820.838 280.8C817.238 278.533 814.371 275.6 812.238 272C810.104 268.267 809.037 264.2 809.037 259.8V130H825.438V168H875.638V184.4H825.438V259.8C825.438 261.933 826.171 263.8 827.638 265.4C829.238 266.867 831.104 267.6 833.238 267.6H875.638V284H833.238Z" fill="#E9E2DA"/>
<path d="M915.269 284C910.869 284 906.802 282.933 903.069 280.8C899.469 278.667 896.602 275.8 894.469 272.2C892.335 268.467 891.269 264.4 891.269 260V164C891.269 159.6 892.335 155.6 894.469 152C896.602 148.267 899.469 145.333 903.069 143.2C906.802 141.067 910.869 140 915.269 140H1011.27C1015.67 140 1019.67 141.067 1023.27 143.2C1027 145.333 1029.94 148.267 1032.07 152C1034.2 155.6 1035.27 159.6 1035.27 164V260C1035.27 264.4 1034.2 268.467 1032.07 272.2C1029.94 275.8 1027 278.667 1023.27 280.8C1019.67 282.933 1015.67 284 1011.27 284H915.269ZM915.269 267.8H1011.27C1013.4 267.8 1015.2 267.067 1016.67 265.6C1018.27 264 1019.07 262.133 1019.07 260V164C1019.07 161.867 1018.27 160.067 1016.67 158.6C1015.2 157 1013.4 156.2 1011.27 156.2H915.269C913.135 156.2 911.269 157 909.669 158.6C908.202 160.067 907.469 161.867 907.469 164V260C907.469 262.133 908.202 264 909.669 265.6C911.269 267.067 913.135 267.8 915.269 267.8Z" fill="#E9E2DA"/>
<path d="M1080.89 284C1076.49 284 1072.43 282.933 1068.69 280.8C1065.09 278.533 1062.16 275.6 1059.89 272C1057.76 268.267 1056.69 264.2 1056.69 259.8V168H1073.09V259.8C1073.09 261.933 1073.83 263.8 1075.29 265.4C1076.89 266.867 1078.76 267.6 1080.89 267.6H1150.49C1152.63 267.6 1154.49 266.867 1156.09 265.4C1157.69 263.8 1158.49 261.933 1158.49 259.8V168H1174.89V259.8C1174.89 264.2 1173.76 268.267 1171.49 272C1169.36 275.6 1166.43 278.533 1162.69 280.8C1159.09 282.933 1155.03 284 1150.49 284H1080.89Z" fill="#E9E2DA"/>
<path d="M1217.03 284C1212.49 284 1208.36 282.933 1204.63 280.8C1201.03 278.533 1198.16 275.6 1196.03 272C1193.89 268.267 1192.83 264.2 1192.83 259.8V130H1209.23V168H1259.43V184.4H1209.23V259.8C1209.23 261.933 1209.96 263.8 1211.43 265.4C1213.03 266.867 1214.89 267.6 1217.03 267.6H1259.43V284H1217.03Z" fill="#E9E2DA"/>
<path fill-rule="evenodd" clip-rule="evenodd" d="M401.2 294V130.2H531.2C537.345 130.2 543.14 131.793 548.345 135.023C553.454 137.982 557.597 142.03 560.603 147.102L552 152.2C549.867 148.6 546.933 145.733 543.2 143.6C539.6 141.333 535.6 140.2 531.2 140.2H411.2V284H427.4V230.4H531.2C535.6 230.4 539.6 229.333 543.2 227.2C546.933 224.933 549.867 222 552 218.4C554.133 214.8 555.2 210.8 555.2 206.4V164.2C555.2 159.8 554.133 155.8 552 152.2L560.603 147.102C562.628 150.52 563.971 154.174 564.658 158H662.403C668.62 158 674.493 159.563 679.748 162.823C684.885 165.799 689.003 169.918 691.98 175.055C694.623 179.314 696.17 183.969 696.645 188.887C697.097 184.007 698.561 179.37 701.091 175.102L701.118 175.056L701.146 175.01C704.217 169.952 708.296 165.829 713.35 162.824C718.648 159.619 724.496 158 730.694 158H799.037V120H835.438V158H881.776C882.446 154.127 883.787 150.429 885.825 146.971C888.789 141.808 892.86 137.625 897.971 134.597L898.039 134.557L898.107 134.518C903.388 131.5 909.171 130 915.269 130H1011.27C1017.34 130 1023.09 131.488 1028.3 134.556C1033.53 137.56 1037.71 141.741 1040.71 146.971C1043.78 152.177 1045.27 157.929 1045.27 164V260C1045.27 266.098 1043.77 271.881 1040.75 277.161L1040.71 277.23L1040.67 277.298C1037.64 282.408 1033.46 286.478 1028.3 289.443C1023.09 292.512 1017.34 294 1011.27 294H915.269C909.171 294 903.388 292.5 898.107 289.482L898.039 289.443L897.971 289.403C892.927 286.414 888.855 282.342 885.866 277.298L885.826 277.23L885.786 277.161C885.736 277.074 885.687 276.986 885.638 276.898V294H833.238C827.062 294 821.203 292.527 815.876 289.482L815.69 289.376L815.509 289.262C810.589 286.165 806.591 282.087 803.635 277.098L803.594 277.03L803.555 276.961C800.538 271.681 799.037 265.898 799.037 259.8V194.4H732.894V294H592.803C586.705 294 580.922 292.5 575.642 289.482L575.456 289.376L575.275 289.262C570.409 286.199 566.405 282.194 563.341 277.328L563.227 277.147L563.121 276.961C560.103 271.681 558.603 265.898 558.603 259.8V226.509C555.853 230.217 552.418 233.302 548.39 235.748L548.344 235.776L548.298 235.803C543.074 238.899 537.298 240.4 531.2 240.4H437.4V294H401.2ZM565.173 207.8H660.203V194.4H565.2V206.4C565.2 206.869 565.191 207.335 565.173 207.8ZM670.203 217.8H568.603V259.8C568.603 264.2 569.67 268.267 571.803 272C574.07 275.6 577.003 278.533 580.603 280.8C584.336 282.933 588.403 284 592.803 284H686.803V192.2C686.803 187.8 685.67 183.8 683.403 180.2C681.27 176.467 678.336 173.533 674.603 171.4C671.003 169.133 666.936 168 662.403 168H568.603V184.4H662.403C664.536 184.4 666.336 185.2 667.803 186.8C669.403 188.267 670.203 190.067 670.203 192.2V217.8ZM881.269 257.6V194.4H835.438V257.6H881.269ZM827.638 265.4C826.171 263.8 825.438 261.933 825.438 259.8V184.4H875.638V168H825.438V130H809.037V259.8C809.037 264.2 810.104 268.267 812.238 272C814.371 275.6 817.238 278.533 820.838 280.8C824.571 282.933 828.704 284 833.238 284H875.638V267.6H833.238C831.104 267.6 829.238 266.867 827.638 265.4ZM1023.27 280.8C1027 278.667 1029.94 275.8 1032.07 272.2C1034.2 268.467 1035.27 264.4 1035.27 260V164C1035.27 159.6 1034.2 155.6 1032.07 152C1029.94 148.267 1027 145.333 1023.27 143.2C1019.67 141.067 1015.67 140 1011.27 140H915.269C910.869 140 906.802 141.067 903.069 143.2C899.469 145.333 896.602 148.267 894.469 152C892.335 155.6 891.269 159.6 891.269 164V260C891.269 264.4 892.335 268.467 894.469 272.2C896.602 275.8 899.469 278.667 903.069 280.8C906.802 282.933 910.869 284 915.269 284H1011.27C1015.67 284 1019.67 282.933 1023.27 280.8ZM1016.67 158.6C1015.2 157 1013.4 156.2 1011.27 156.2H915.269C913.135 156.2 911.269 157 909.669 158.6C908.202 160.067 907.469 161.867 907.469 164V260C907.469 262.133 908.202 264 909.669 265.6C911.269 267.067 913.135 267.8 915.269 267.8H1011.27C1013.4 267.8 1015.2 267.067 1016.67 265.6C1018.27 264 1019.07 262.133 1019.07 260V164C1019.07 161.867 1018.27 160.067 1016.67 158.6ZM917.469 257.8H1009.07V166.2H917.469V257.8ZM718.494 171.4C714.894 173.533 711.96 176.467 709.694 180.2C707.56 183.8 706.494 187.8 706.494 192.2V284H722.894V192.2C722.894 190.067 723.627 188.267 725.094 186.8C726.694 185.2 728.56 184.4 730.694 184.4H795.894V168H730.694C726.294 168 722.227 169.133 718.494 171.4ZM536.6 158.8C535.133 157.2 533.333 156.4 531.2 156.4H435.2C433.067 156.4 431.2 157.2 429.6 158.8C428.133 160.267 427.4 162.067 427.4 164.2V206.4C427.4 208.533 428.133 210.333 429.6 211.8C431.2 213.267 433.067 214 435.2 214H531.2C533.333 214 535.133 213.267 536.6 211.8C538.2 210.333 539 208.533 539 206.4V164.2C539 162.067 538.2 160.267 536.6 158.8ZM437.4 204H529V166.4H437.4V204ZM1063.55 289.376L1063.37 289.262C1058.5 286.199 1054.5 282.194 1051.43 277.328L1051.32 277.147L1051.21 276.961C1048.19 271.681 1046.69 265.898 1046.69 259.8V158H1083.09V257.6H1148.49V158H1182.83V120H1219.23V158H1269.43V194.4H1219.23V257.6H1269.43V294H1217.03C1210.85 294 1204.99 292.527 1199.67 289.482L1199.48 289.376L1199.3 289.262C1194.38 286.165 1190.38 282.087 1187.42 277.098L1187.38 277.03L1187.34 276.961C1185.76 274.182 1184.59 271.264 1183.84 268.233C1183.04 271.339 1181.78 274.319 1180.07 277.142C1177.06 282.197 1172.94 286.276 1167.88 289.348L1167.84 289.376L1167.79 289.403C1162.52 292.526 1156.67 294 1150.49 294H1080.89C1074.8 294 1069.01 292.5 1063.73 289.482L1063.55 289.376ZM1171.49 272C1173.76 268.267 1174.89 264.2 1174.89 259.8V168H1158.49V259.8C1158.49 261.933 1157.69 263.8 1156.09 265.4C1154.49 266.867 1152.63 267.6 1150.49 267.6H1080.89C1078.76 267.6 1076.89 266.867 1075.29 265.4C1073.83 263.8 1073.09 261.933 1073.09 259.8V168H1056.69V259.8C1056.69 264.2 1057.76 268.267 1059.89 272C1062.16 275.6 1065.09 278.533 1068.69 280.8C1072.43 282.933 1076.49 284 1080.89 284H1150.49C1155.03 284 1159.09 282.933 1162.69 280.8C1166.43 278.533 1169.36 275.6 1171.49 272ZM1211.43 265.4C1209.96 263.8 1209.23 261.933 1209.23 259.8V184.4H1259.43V168H1209.23V130H1192.83V259.8C1192.83 264.2 1193.89 268.267 1196.03 272C1198.16 275.6 1201.03 278.533 1204.63 280.8C1208.36 282.933 1212.49 284 1217.03 284H1259.43V267.6H1217.03C1214.89 267.6 1213.03 266.867 1211.43 265.4ZM670.203 267.6H592.803C590.67 267.6 588.803 266.867 587.203 265.4C585.736 263.8 585.003 261.933 585.003 259.8V234.2H670.203V267.6ZM660.203 244.2H595.003V257.6H660.203V244.2Z" fill="black"/>
</svg>
